<!-- Generator: Adobe Illustrator 15.1.0, SVG Export Plug-In  -->
<svg id="svg4091" xmlns:rdf="http://www.w3.org/1999/02/22-rdf-syntax-ns#" xmlns="http://www.w3.org/2000/svg" enable-background="new 0 0 575 80" xml:space="preserve" overflow="visible" version="1.1" y="0px" x="0px" xmlns:cc="http://creativecommons.org/ns#" xmlns:dc="http://purl.org/dc/elements/1.1/" viewBox="0 0 575 80" height="80" width="575"><metadata id="metadata4432"><rdf:RDF><cc:Work rdf:about=""><dc:format>image/svg+xml</dc:format><dc:type rdf:resource="http://purl.org/dc/dcmitype/StillImage"/><dc:title/></cc:Work></rdf:RDF></metadata>
<defs id="defs4093">
</defs>
<path id="path4328" d="M145.83,0.00098h-138.56c-3.9976,0-7.2666,3.269-7.2666,7.2656v65.471c0,3.995,3.269,7.262,7.2666,7.262l138.56-0.00928v-79.99z" fill="#0E2D6D"/>
<linearGradient id="SVGID_1_" y2="39.405" gradientUnits="userSpaceOnUse" x2="75.772" y1="1.6836" x1="75.772">
	<stop id="stop4331" stop-color="#FFF" offset="0"/>
	<stop id="stop4333" stop-color="#E7ECF5" offset="0.03941"/>
	<stop id="stop4335" stop-color="#BACAE4" offset="0.12174"/>
	<stop id="stop4337" stop-color="#93ACD4" offset="0.21007"/>
	<stop id="stop4339" stop-color="#7293C7" offset="0.30316"/>
	<stop id="stop4341" stop-color="#577EBC" offset="0.4025"/>
	<stop id="stop4343" stop-color="#426EB3" offset="0.51032"/>
	<stop id="stop4345" stop-color="#3363AE" offset="0.6308"/>
	<stop id="stop4347" stop-color="#2B5CAA" offset="0.77417"/>
	<stop id="stop4349" stop-color="#285AA9" offset="1"/>
</linearGradient>
<path id="path4351" opacity="0.8" d="M145.83,1.6836h-140.11s3.0625,16.504,22.383,30.342c0,0,9.8916,7.4458,16.335,7.3789h101.39v-37.721z" fill="url(#SVGID_1_)"/>
<linearGradient id="SVGID_2_" y2="8.5265E-14" gradientUnits="userSpaceOnUse" x2="318.11" y1="79.99" x1="318.11">
	<stop id="stop4354" stop-color="#D92231" offset="0"/>
	<stop id="stop4356" stop-color="#D12130" offset="0.19309"/>
	<stop id="stop4358" stop-color="#BD1F2C" offset="0.44769"/>
	<stop id="stop4360" stop-color="#9D1A26" offset="0.73522"/>
	<stop id="stop4362" stop-color="#7C131D" offset="1"/>
</linearGradient>
<polygon id="polygon4364" points="145.83,79.99,490.4,79.984,490.4,0,145.83,0" fill="url(#SVGID_2_)"/>
<linearGradient id="SVGID_3_" y2="39.405" gradientUnits="userSpaceOnUse" x2="318.11" y1="1.6836" x1="318.11">
	<stop id="stop4367" stop-color="#FFF" offset="0"/>
	<stop id="stop4369" stop-color="#FAE1E3" offset="0.04837"/>
	<stop id="stop4371" stop-color="#F2B4B9" offset="0.12984"/>
	<stop id="stop4373" stop-color="#EB8D95" offset="0.21737"/>
	<stop id="stop4375" stop-color="#E66C76" offset="0.30964"/>
	<stop id="stop4377" stop-color="#E1515D" offset="0.40809"/>
	<stop id="stop4379" stop-color="#DD3C49" offset="0.51484"/>
	<stop id="stop4381" stop-color="#DB2D3B" offset="0.63422"/>
	<stop id="stop4383" stop-color="#D92533" offset="0.77626"/>
	<stop id="stop4385" stop-color="#D92231" offset="1"/>
</linearGradient>
<rect id="rect4387" opacity="0.8" height="37.721" width="344.58" y="1.6836" x="145.83" fill="url(#SVGID_3_)"/>
<path id="path4389" d="M490.4,0h77.412c3.7148,0,6.9839,3.2715,6.9839,7.2666v65.461c0,3.9956-3.269,7.2622-7.2656,7.2622l-77.13-0.00928v-79.981z" fill="#0E2D6D"/>
<linearGradient id="SVGID_4_" y2="39.405" gradientUnits="userSpaceOnUse" x2="869.23" gradientTransform="matrix(-1 0 0 1 1398.9707 0)" y1="1.6846" x1="869.23">
	<stop id="stop4392" stop-color="#FFF" offset="0"/>
	<stop id="stop4394" stop-color="#E7ECF5" offset="0.03941"/>
	<stop id="stop4396" stop-color="#BACAE4" offset="0.12174"/>
	<stop id="stop4398" stop-color="#93ACD4" offset="0.21007"/>
	<stop id="stop4400" stop-color="#7293C7" offset="0.30316"/>
	<stop id="stop4402" stop-color="#577EBC" offset="0.4025"/>
	<stop id="stop4404" stop-color="#426EB3" offset="0.51032"/>
	<stop id="stop4406" stop-color="#3363AE" offset="0.6308"/>
	<stop id="stop4408" stop-color="#2B5CAA" offset="0.77417"/>
	<stop id="stop4410" stop-color="#285AA9" offset="1"/>
</linearGradient>
<path id="path4412" opacity="0.8" d="M490.4,1.6846h78.679s-3.0635,16.503-22.384,30.343c0,0-9.8926,7.4443-16.336,7.3774h-39.959v-37.72z" fill="url(#SVGID_4_)"/>
<path id="path4414" d="M517.32,32.133c-0.63281-0.55664-1.1919-1.0332-2.0635-2.4619-2.1504-3.4951-2.2251-8.1025,2.3013-9.772l16.443-5.5615h8.0991v47.025c0,3.5737-1.0308,6.1167-6.831,6.1167-2.3003,0-5.0034-0.23438-6.1167-0.48047v-38.836l-11.83,3.9694z" fill="#FFF"/>
<path id="path4416" d="M96.31,74.296c0.95166,0.48926,2.8833,1.0703,5.3037,1.1348,4.1709,0.08887,6.4385-1.5054,8.123-5.2422l22.349-49.844c-0.92139-0.49072-2.9746-1.0415-4.6304-1.0737-2.8814-0.06104-6.7436,0.52197-9.1953,6.4087l-7.22,17.07-14.197-23.111c-0.92041-0.27588-3.1567-0.67432-4.7837-0.67432-5.0254,0-7.8154,1.8384-10.728,4.9966l-13.792,15.083,11.094,17.469c2.0547,3.1885,4.7529,4.813,9.1362,4.813,2.8823,0,5.2734-0.66992,6.3755-1.1929l-13.364-20.14,9.4722-10.055,15.542,24.399-9.47,19.958zm-29.317-18.855c0,3.6777-1.4424,5.7969-8.6143,5.7969-0.95166,0-1.7773-0.06494-2.5752-0.18848v-48.736c0-3.709,1.2564-7.5728,8.4907-7.5728,0.92041,0,1.8384,0.09375,2.6987,0.27588v50.424zm-14.795-7.355c0,6.8648-4.4756,11.862-13.581,12.844-6.5898,0.70557-16.124-0.12354-20.659-0.64404-0.15479-0.73682-0.27686-1.6538-0.27686-2.3906,0-5.979,3.2178-7.3555,6.2524-7.3555,3.1582,0,8.1245,0.5498,11.804,0.5498,4.0747,0,5.3013-1.3814,5.3013-2.6978,0-1.7183-1.6235-2.419-4.7817-3.0332l-8.644-1.6558c-7.173-1.382-11.004-6.347-11.004-11.619,0-6.4038,4.5356-11.77,13.457-12.749,6.7432-0.73682,14.958,0.09033,19.466,0.64209,0.15283,0.7666,0.24365,1.501,0.24365,2.2988,0,5.978-3.1567,7.2656-6.1914,7.2656-2.3301,0-5.9458-0.42969-10.085-0.42969-4.2007,0-5.9468,1.1665-5.9468,2.5742,0,1.502,1.6548,2.1143,4.2925,2.5737l8.2456,1.5332c8.459,1.563,12.108,6.376,12.108,12.293z" fill="#FFF"/>
<path id="path4418" d="M209.22,51.404c0-8.5806-5.5864-12.754-14.482-14.72l-15.585-3.5391c-2.8335-0.63037-5.1963-1.4976-5.1963-4.3301,0-3.0708,2.4424-4.2495,8.9736-4.2495,7.7144,0,9.5249,0.39258,16.529,0.39258,3.23,0,6.5337-1.4966,6.5337-7.8706,0-0.78857-0.07617-1.6548-0.23438-2.4424-4.7241-0.39111-13.146-0.86475-23.534-0.86475-15.664,0-21.647,6.77-21.647,15.427,0,8.1069,5.1177,12.598,14.168,14.72l15.583,3.6201c3.6235,0.8623,5.5913,2.4399,5.5913,4.7212,0,3.0718-2.7554,4.252-9.2876,4.252-7.7124,0-11.255-0.5498-18.262-0.5498-3.2275,0-6.5322,1.4922-6.5322,7.8696,0,0.78662,0.07861,1.6514,0.23584,2.4399,4.7246,0.46875,14.877,1.023,25.264,1.023,15.67,0,21.88-6.689,21.88-15.9z" fill="#FFF"/>
<path id="path4420" d="M337.84,37.551v-13.143h12.357c5.2769,0,9.4468,0.78418,9.4468,6.2944,0,4.6406-3.147,6.8486-9.4468,6.8486h-12.365zm-0.08,10.389h6.5308l12.612,15.033c2.3545,2.9111,4.6421,4.4087,9.9941,4.4087,3.6211,0,6.0601-0.47119,8.023-1.419l-16.382-18.965c9.2124-1.9663,13.853-7.9526,13.853-16.767,0-10.862-6.6143-16.214-19.99-16.214l-19.125-0.07715c-6.2158,0.23535-8.2676,2.3589-8.2676,8.0273v44.55c0.94336,0.15723,2.0518,0.23193,3.1509,0.23193,7.8696,0,9.6787-2.2783,9.6787-6.3716l-0.06-12.437z" fill="#FFF"/>
<path id="path4422" d="M227.72,38.968v-14.484h12.828c6.3799,0,9.5298,2.3613,9.5298,7.0068,0,4.9609-3.1499,7.477-9.5298,7.477h-12.829zm-12.83,27.55c0.94678,0.15723,2.0493,0.23193,3.1475,0.23193,7.874,0,9.6826-2.2783,9.6826-6.3716v-10.784h13.379c14.562,0,21.803-6.2954,21.803-18.103,0-11.413-7.2412-17.474-20.936-17.474h-18.806c-6.2959,0-8.2632,2.4399-8.2632,8.0273v44.474z" fill="#FFF"/>
<path id="path4424" d="M305.49,39.598c0,6.0644-1.023,10.309-3.0693,12.83-1.9663,2.5962-5.1973,3.7783-9.6035,3.7783-4.4873-0.08057-7.709-1.3384-9.7598-3.7783-2.0425-2.4394-3.0679-6.689-3.0679-12.83,0-6.0601,1.1016-10.31,3.1475-12.752,2.0474-2.5181,5.2739-3.6982,9.6802-3.6982s7.5562,1.1802,9.6035,3.6982c2.04,2.442,3.07,6.692,3.07,12.752zm-12.68,27.077c8.2632,0,14.642-1.9668,19.13-5.9814,4.4829-3.938,6.7705-11.023,6.7705-21.096-0.08447-9.9155-2.3638-16.844-7.0068-20.938-4.648-4.0151-10.94-6.0586-18.894-6.0586-7.9478,0-14.247,2.0435-18.89,6.0586-4.6431,4.0933-6.9282,11.022-7.0068,20.938,0,10.072,2.2842,17.158,6.77,21.096,4.49,4.014,10.87,5.981,19.13,5.981z" fill="#FFF"/>
<path id="path4426" d="M406.23,24.802h10.312c3.3857,0,6.8442-1.5752,6.8442-8.269,0-0.78418-0.07617-1.73-0.23438-2.5161h-40.061c-3.3848,0-6.8496,1.5752-6.8496,8.2632,0,0.78955,0.07959,1.731,0.24121,2.522h16.919v41.715c0.94678,0.15723,2.0459,0.23193,3.1499,0.23193,7.8648,0,9.6787-2.2783,9.6787-6.3716v-35.575z" fill="#FFF"/>
<path id="path4428" d="M473.69,51.404c0-8.5806-5.5947-12.754-14.483-14.72l-15.586-3.5391c-2.834-0.63037-5.1953-1.4976-5.1953-4.3301,0-3.0708,2.438-4.2495,8.9712-4.2495,7.7168,0,9.5273,0.39258,16.53,0.39258,3.231,0,6.5332-1.4966,6.5332-7.8706,0-0.78857-0.07178-1.6548-0.23193-2.4424-4.7241-0.39111-13.148-0.86475-23.538-0.86475-15.66,0-21.646,6.77-21.646,15.427,0,8.1069,5.1167,12.598,14.169,14.72l15.584,3.6201c3.6235,0.8623,5.5898,2.4399,5.5898,4.7212,0,3.0718-2.7573,4.252-9.2861,4.252-7.7134,0-11.254-0.5498-18.266-0.5498-3.2266,0-6.5312,1.4922-6.5312,7.8696,0,0.78662,0.07861,1.6514,0.23779,2.4399,4.7207,0.46875,14.876,1.023,25.267,1.023,15.68,0,21.9-6.689,21.9-15.9z" fill="#FFF"/>
</svg>
